<svg width="44" height="44" viewBox="0 0 44 44" fill="none" xmlns="http://www.w3.org/2000/svg">
<path fill-rule="evenodd" clip-rule="evenodd" d="M15.4142 22C15.4142 21.4477 15.8619 21 16.4142 21L21.0711 21L21.0711 16.3431C21.0711 15.7908 21.5188 15.3431 22.0711 15.3431C22.6234 15.3431 23.0711 15.7908 23.0711 16.3431L23.0711 21H27.7279C28.2802 21 28.7279 21.4477 28.7279 22C28.7279 22.5523 28.2802 23 27.7279 23H23.0711L23.0711 27.6569C23.0711 28.2092 22.6234 28.6569 22.0711 28.6569C21.5188 28.6569 21.0711 28.2092 21.0711 27.6569L21.0711 23L16.4142 23C15.8619 23 15.4142 22.5523 15.4142 22Z" fill="white"/>
</svg>
